<svg id="Layer_1" data-name="Layer 1" xmlns="http://www.w3.org/2000/svg" viewBox="0 0 1709.53 899.5"><defs><style>.cls-1{fill:#6e3088;}</style></defs><path class="cls-1" d="M391.14,268.28,546.25,131.42a330,330,0,0,1,348-13l36.5-36.5H1198a177.71,177.71,0,0,1,79.5,18.25,172.18,172.18,0,0,1,33.89,22.16l43-39.11h183.79v82.12l88.63-83.42H1808V668.45L1646.37,813.13v-582h-161V443.6H1359V229.83H1196V341.94A139.3,139.3,0,0,0,1170,293.7c-18.56-22.18-39.16-32.32-56-40.41a231.5,231.5,0,0,0-92.55-22.15H768.49v66.49a305.15,305.15,0,0,0-63.87-43C692,248.23,633.32,219.86,552.11,222,475.4,224,418.53,252.25,391.14,268.28Z" transform="translate(-98.47 -75.03)"/><path class="cls-1" d="M770.44,325.64V448.17H529.3V595.45H672.69a84.91,84.91,0,0,1-10.43,28.68c-21.58,36.5-65.11,44.33-79.51,46.92a142.74,142.74,0,0,1-74.3-6.51c-54-20.73-76.19-69.76-82.12-84.73-4.25-10.71-26.13-69.43,6.52-129,4-7.28,31-55,89.94-71.69,16.15-4.58,64.68-15.33,109.49,11.73a124.3,124.3,0,0,1,32.58,28.68Z" transform="translate(-98.47 -75.03)"/><path class="cls-1" d="M312.93,343.89c-17.4,25.64-50,81.3-56.05,159-2.31,29.71-6.81,100.12,35.19,173.36,41.83,72.93,104.55,104.67,127.74,116C442.74,803.49,546,850.44,661,806.61c54.47-20.76,90.43-53.84,109.49-74.29v83.43h243.75a223,223,0,0,0,74.3-13c58.75-21.12,92.85-61.74,106.88-80.81v91.24h161.68v-219h129V811.83h160.33L1486,965.64H1306.17v-86L1214.92,963H1033.74V884.81a243,243,0,0,1-176,78.22H606.2v-71.7a265.55,265.55,0,0,1-71.68,53.45c-7.43,3.78-38.09,19-82.12,26.07-15.13,2.45-79,11.57-149.9-13-123.16-42.74-174-152.72-178.57-162.94-46.52-104.58-17.11-200-6.52-229.41C143,494.65,187.94,451,211.26,431.22Z" transform="translate(-98.47 -75.03)"/><path class="cls-1" d="M923,367.35v87.33h87.34c20.67-6.36,34.47-25.31,33.88-45.62-.5-17.14-11.17-32.83-27.37-40.41Z" transform="translate(-98.47 -75.03)"/><path class="cls-1" d="M923,586.33v87.33h87.34c20.67-6.36,34.47-25.3,33.88-45.62-.5-17.14-11.17-32.83-27.37-40.41Z" transform="translate(-98.47 -75.03)"/><path class="cls-1" d="M1195.37,433.82v133a105.17,105.17,0,0,0-54.74-50.84,112,112,0,0,0,54.74-82.12Z" transform="translate(-98.47 -75.03)"/></svg>