<svg width="57" height="57" viewBox="0 0 57 57" fill="none" xmlns="http://www.w3.org/2000/svg">
<path id="Vector 46" d="M1 30.1852L1.88776 26.4122L7.54724 26.7451H10.8763L14.7603 26.0793L18.9772 25.5244L24.9696 24.0818L30.0742 22.0843L38.3969 18.3113L43.3906 15.981L44.9442 15.0932L46.1649 13.4287L46.7197 11.6531L47.6075 7.99112L48.2733 6.54851L49.383 4.77299L51.0475 2.66455L52.3792 1L53.3779 1.77679L53.045 2.22067L53.9328 2.77552L55.1534 1L56.1522 1.88776L54.8205 3.66328L53.9328 6.43754L53.3779 7.65821L51.9353 8.98985L51.7134 9.87761L51.1585 10.5434V12.097L51.3805 12.5409L51.6024 13.4287L51.3805 14.6493L50.1598 19.643L49.7159 20.4198L42.5028 23.416L34.624 26.3012L28.5206 28.2987L30.9619 35.1788L33.2923 41.3931L33.7362 42.7248L37.1763 45.721L27.7438 56.1522L20.9746 52.6011L25.4134 49.9378L24.0818 47.1636L25.7463 46.0539L26.4122 44.6113V42.9467L27.2999 41.3931V39.8396L27.5219 38.3969L27.2999 37.1763L26.4122 36.8434L25.4134 36.2885L23.8599 37.5092L22.7502 38.8408L22.4172 40.9493V42.9467V43.9455L21.4185 44.8332L19.3101 45.499L18.8662 45.8319L17.0907 47.3855H16.2029L14.6493 46.3868L12.208 42.9467L10.8763 41.3931H10.0996L9.5447 40.9493L8.32403 41.6151L5.99366 36.2885L6.99239 31.1839L1 30.1852Z" stroke="#1CB1A2" stroke-width="0.5"/>
</svg>
