<svg xmlns="http://www.w3.org/2000/svg" width="110" height="57.881" viewBox="0 0 110 57.881"><defs><style>.a{fill:#fefdff;}</style></defs><path class="a" d="M44.158,25.891V17.758L37.477,23.9a8.391,8.391,0,0,0-6.828-2.947c-5.394,0-9.127,4.165-9.127,9.642,0,5.765,3.733,9.641,9.231,9.641,3.375,0,6.489-1.847,7.234-4.915H28.725V25.891Z" transform="translate(-1.16 -1.65)"/><path class="a" d="M88.833,35.352H80.5V49.438H70.146V43.445c-2.136,4.167-7.019,5.992-14.054,5.992H42.677v-5.3a17.532,17.532,0,0,1-13.15,5.813c-12.7,0-19.84-8.84-19.84-19.274a19.688,19.688,0,0,1,3.61-11.66L6.641,25.136C1.711,29.668-.321,34-.321,40.343c0,10.434,7.145,19.274,19.84,19.274a17.5,17.5,0,0,0,12.2-4.839l.468-.431V59.1H45.6c5.414,0,9.553-1.081,12.147-3.478l1.964-1.809V59.1H71.275l5.851-5.389V59.1H88.691l10.491-9.662H88.833Z" transform="translate(0.321 -1.736)"/><path class="a" d="M56.359,41.758h4.377c2.826,0,3.8-1.366,3.8-3.114,0-1.7-.926-2.932-3.547-2.932H56.359Z" transform="translate(-3.522 -2.868)"/><path class="a" d="M99.338,1l-5.713,5.3V1h-11.7L79,3.706C76.688,1.885,73.134.994,68.2.994H54.531l-2.44,2.26A20.635,20.635,0,0,0,41.455.479a19.6,19.6,0,0,0-13.7,5.189l-8,7.368a20.255,20.255,0,0,1,10.722-2.891,19.944,19.944,0,0,1,13.561,4.914v-4.4H57.711c8.207,0,12.6,2.468,13.8,7.588V10.66H81.86V24.437h8.334V10.66h10.353V48.177l10.493-9.665V1Z" transform="translate(-1.04 -0.479)"/><path class="a" d="M64.231,23.447A2.621,2.621,0,0,0,61.3,20.8H56.359v5.686H61.4A2.853,2.853,0,0,0,64.231,23.447Z" transform="translate(-3.522 -1.856)"/><path class="a" d="M75.011,33.964V25.192a9.6,9.6,0,0,1-3.575,5.369A9.76,9.76,0,0,1,75.011,33.964Z" transform="translate(-4.544 -2.154)"/></svg>